<svg xmlns="http://www.w3.org/2000/svg" width="50" height="50" viewBox="0 0 50 50">
    <g fill="none" fill-rule="evenodd">
        <g transform="translate(6 21)">
            <circle cx="7.5" cy="1.5" r="1.5" fill="#EC8EAD"/>
            <path stroke="#EC8EAD" stroke-linecap="round" stroke-linejoin="round" stroke-width="2" d="M0 1.5h4"/>
        </g>
        <g transform="translate(6 28)">
            <circle cx="7.5" cy="1.5" r="1.5" fill="#EC8EAD"/>
            <path stroke="#EC8EAD" stroke-linecap="round" stroke-linejoin="round" stroke-width="2" d="M0 1.5h4"/>
        </g>
        <g transform="translate(6 35)">
            <circle cx="7.5" cy="1.5" r="1.5" fill="#EC8EAD"/>
            <path stroke="#EC8EAD" stroke-linecap="round" stroke-linejoin="round" stroke-width="2" d="M0 1.5h4"/>
        </g>
        <g transform="translate(21 21)">
            <circle cx="7.5" cy="1.5" r="1.5" fill="#FBCF47"/>
            <path stroke="#FBCF47" stroke-linecap="round" stroke-linejoin="round" stroke-width="2" d="M0 1.5h4"/>
        </g>
        <circle cx="43.5" cy="22.5" r="1.5" fill="#7CC576"/>
        <path stroke="#7CC576" stroke-linecap="round" stroke-linejoin="round" stroke-width="2" d="M36 22.5h4"/>
        <g transform="translate(21 28)">
            <circle cx="7.5" cy="1.5" r="1.5" fill="#FBCF47"/>
            <path stroke="#FBCF47" stroke-linecap="round" stroke-linejoin="round" stroke-width="2" d="M0 1.5h4"/>
        </g>
        <circle cx="43.5" cy="29.5" r="1.5" fill="#7CC576"/>
        <path stroke="#7CC576" stroke-linecap="round" stroke-linejoin="round" stroke-width="2" d="M36 29.5h4"/>
        <g transform="translate(21 35)">
            <circle cx="7.5" cy="1.5" r="1.5" fill="#FBCF47"/>
            <path stroke="#FBCF47" stroke-linecap="round" stroke-linejoin="round" stroke-width="2" d="M0 1.5h4"/>
        </g>
        <g transform="translate(21 42)">
            <circle cx="7.5" cy="1.5" r="1.5" fill="#FBCF47"/>
            <path stroke="#FBCF47" stroke-linecap="round" stroke-linejoin="round" stroke-width="2" d="M0 1.5h4"/>
        </g>
        <path stroke="#EC8EAD" stroke-linecap="round" stroke-linejoin="round" stroke-width="2" d="M6 7h8v8H6z"/>
        <path stroke="#FBCF47" stroke-linecap="round" stroke-linejoin="round" stroke-width="2" d="M21 7h8v8h-8z"/>
        <path stroke="#7CC576" stroke-linecap="round" stroke-linejoin="round" stroke-width="2" d="M36 7h8v8h-8z"/>
    </g>
</svg>
