<svg xmlns="http://www.w3.org/2000/svg" width="46" height="49" viewBox="0 0 46 49">
  <g fill="#FBCF47" fill-rule="evenodd">
    <path fill-rule="nonzero" d="M37 23c0-7.73-6.27-14-14-14S9 15.27 9 23c0 5.87 3.64 11.03 9 13.08V40c0 .55.45 1 1 1h8c.55 0 1-.45 1-1v-3.92c5.36-2.05 9-7.2 9-13.08zM20 39v-3.63c0-.43-.28-.82-.7-.95C14.4 32.82 11 28.24 11 23c0-6.63 5.37-12 12-12s12 5.37 12 12c0 5.24-3.4 9.83-8.3 11.42-.42.13-.7.52-.7.95V39h-6z"/>
    <path d="M18 39h10c.55 0 1 .45 1 1v4c0 2.76-2.24 5-5 5h-2c-2.76 0-5-2.24-5-5v-4c0-.55.45-1 1-1zm1 2v3c0 1.65 1.35 3 3 3h2c1.66 0 3-1.34 3-3v-3h-8z"/>
    <path fill-rule="nonzero" d="M24 5V1c0-.55-.45-1-1-1s-1 .45-1 1v4c0 .55.45 1 1 1s1-.45 1-1zM10.98 9.56L8.15 6.74c-.4-.4-1.02-.4-1.4 0-.4.4-.4 1.02 0 1.4L9.55 11c.4.4 1.03.4 1.42 0 .4-.4.4-1.02 0-1.42zm28.28 28.3L36.44 35c-.4-.4-1.03-.4-1.42 0-.4.4-.4 1.02 0 1.42l2.83 2.82c.4.4 1.02.4 1.4 0 .4-.4.4-1.02 0-1.4zm-2.82-26.88l2.82-2.83c.4-.4.4-1.02 0-1.4-.4-.4-1.02-.4-1.4 0L35 9.55c-.4.4-.4 1.03 0 1.42.4.4 1.02.4 1.42 0zM8.14 39.26L11 36.44c.4-.4.4-1.03 0-1.42-.4-.4-1.02-.4-1.42 0l-2.82 2.83c-.4.4-.4 1.02 0 1.4.4.4 1.02.4 1.4 0zM41 24h4c.55 0 1-.45 1-1s-.45-1-1-1h-4c-.55 0-1 .45-1 1s.45 1 1 1zM1 24h4c.55 0 1-.45 1-1s-.45-1-1-1H1c-.55 0-1 .45-1 1s.45 1 1 1zm22-10c-4.97 0-9 4.03-9 9 0 .55.45 1 1 1s1-.45 1-1c0-3.87 3.13-7 7-7 .55 0 1-.45 1-1s-.45-1-1-1z"/>
  </g>
</svg>