<svg xmlns="http://www.w3.org/2000/svg" width="50" height="50" viewBox="0 0 50 50">
  <g fill="none" fill-rule="evenodd" stroke-linecap="round">
    <g stroke-width="2">
      <g>
        <path stroke="#6B7588" d="M7.088 35.97c-4.076-6.64-4.118-15.06-.122-21.74m7.028-7.12c6.676-4.115 15.156-4.146 21.86-.094m7.138 7.145c4.03 6.68 4.01 15.12-.058 21.78m-7.144 7.09C29.157 47 20.8 47 14.174 43m6.453-7.903c2.744 1.187 5.873 1.204 8.628.05m5.814-5.71c1.22-2.786 1.24-5.977.04-8.773m-5.7-5.743c-2.81-1.22-6.02-1.22-8.83 0m-5.68 5.72c-1.22 2.82-1.2 6.04.05 8.85"/>
        <path stroke="#EC7394" d="M31.364 17.222l7.07-8.485s1.062-1.768 2.83 0c1.767 1.767 0 2.828 0 2.828l-8.486 7.07s-.707.708-1.414 0c-.707-.706 0-1.413 0-1.413zm1.386 14.17l8.485 7.07s1.767 1.063 0 2.83c-1.768 1.768-2.83 0-2.83 0l-7.07-8.485s-.707-.707 0-1.414 1.414 0 1.414 0zM18.607 17.25l-7.07-8.485s-1.062-1.767-2.83 0c-1.767 1.768 0 2.83 0 2.83l8.486 7.07s.707.707 1.414 0 0-1.414 0-1.414zM17.25 31.393l-8.485 7.07s-1.767 1.062 0 2.83c1.768 1.767 2.83 0 2.83 0l7.07-8.486s.707-.707 0-1.414-1.414 0-1.414 0z" stroke-linejoin="round"/>
      </g>
    </g>
  </g>
</svg>
