<svg xmlns="http://www.w3.org/2000/svg" width="50" height="50" viewBox="0 0 50 50">
    <g fill="none" fill-rule="evenodd" stroke-linecap="round" stroke-linejoin="round" stroke-width="2">
        <path stroke="#FBCF47" d="M33 23h6v3c0 1.657-1.347 3-3 3-1.657 0-3-1.347-3-3v-3z"/>
        <circle cx="8" cy="42" r="3" stroke="#7CC576"/>
        <path stroke="#FBCF47" d="M38 20.71V23h-4v-2.29a7 7 0 1 1 4 0zM36 10a4 4 0 0 0-4 4"/>
        <path stroke="#7CC576" d="M8 35V23.994C8 20.684 10.693 18 14 18c3.314 0 6 2.694 6 6.005V31M36 33.495v4.01C36 41.645 32.134 45 28 45c-4.142 0-8-3.362-8-7.495v-9.01"/>
        <path stroke="#FBCF47" d="M36 3V2"/>
        <g stroke="#FBCF47">
            <path d="M47 14h1M24 14h1"/>
        </g>
        <g stroke="#FBCF47">
            <path d="M43.778 6.222l.707-.707M27.515 22.485l.707-.707"/>
        </g>
        <g stroke="#FBCF47">
            <path d="M43.778 21.778l.707.707M27.515 5.515l.707.707"/>
        </g>
    </g>
</svg>
