<svg xmlns="http://www.w3.org/2000/svg" width="44" height="50" viewBox="0 0 44 50">
    <g fill="none" fill-rule="evenodd">
        <path d="M-3 50h50V0H-3z"/>
        <path stroke="#050038" stroke-linecap="round" stroke-width="2" d="M18.512 38.925c-.821-6.325-9.451-8.574-9.451-16.39 0-7.814 7.824-12.858 14.2-12.858 6.378 0 13.631 4.977 13.334 13.259-.296 8.282-9.147 8.282-9.53 15.989h-8.553zM9.285 6.032s1.915 2.214 2.48 2.969"/>
        <path stroke="#050038" stroke-linecap="round" stroke-linejoin="round" stroke-width="2" d="M21.1 1.661c.153.485.306 3.933.306 4.312M35.707 5.913c-.826 1.199-1.528 1.835-2.354 3.034l2.354-3.034z"/>
        <path stroke="#050038" stroke-linecap="round" stroke-width="2" d="M3.077 30.199l1.115-.593.097-.051.325-.173.095-.05.193-.103.097-.052.095-.05.193-.103.096-.051.193-.103.097-.051.29-.154.096-.051.193-.103.096-.051.087-.046.077-.041.097-.052.193-.102.084-.045M1.752 16.607c.931.364 3.67 1.11 3.682 1.188M39.227 16.738l3.3-1.637M38.444 27.957l1.24.427.105.036.209.072.103.036.313.108.104.036.21.072.09.03.087.03.198.069.21.072.102.035.21.072.104.036.104.036.104.036.094.033.084.028.104.036.21.072.093.033M16.294 21.135c.561.62.566.773 4.199 4.342.078.077 1.425-3.251 2.628-3.563.84-.218 3.013 3.754 3.25 3.563.237-.191.722-1.308 2.862-3.723"/>
        <path fill="#3F53D9" d="M29.3 37.465c-.106 2.744-.017 6.392-.908 8.945-1.487 4.261-9.606 4.261-11.185.427-1.143-2.777-.803-7.467-.784-9.261.001-.158 4.294-.195 12.877-.111z"/>
    </g>
</svg>
