<svg xmlns="http://www.w3.org/2000/svg" width="49" height="42" viewBox="0 0 49 42">
    <g fill="none" fill-rule="evenodd">
        <path d="M-.5-2h50v50h-50z"/>
        <path stroke="#050038" stroke-linecap="round" stroke-linejoin="round" stroke-width="2" d="M2.49 37.988h10.446M35.299 37.988h10.446"/>
        <g stroke="#050038" stroke-linecap="round" stroke-linejoin="round" stroke-width="2">
            <path d="M4.584 2.378l3.14 4.904L12.263 1M28.318 1l-6.282 6.282M22.036 1l6.282 6.282M37.393 4.155h7.678M42.977 1.698l2.792 2.45-2.792 2.45"/>
        </g>
        <path d="M-1 7.98h34.903v34.903H-1z"/>
        <g stroke="#050038" stroke-linecap="round" stroke-linejoin="round" stroke-width="2">
            <path fill="#FFF" d="M15.273 14.16l-.315 12.06c-2.903.29-5.097.435-6.583.435-1.485 0-3.68-.145-6.583-.435l.368-7.943v-3.821c2.777.03 4.849.03 6.215 0 1.366-.031 3.666-.13 6.898-.297zM47.383 13.461l-.314 12.061c-2.904.29-5.098.435-6.583.435-1.486 0-3.68-.145-6.583-.435l.367-7.943v-3.821c2.778.03 4.85.03 6.216 0 1.366-.031 3.665-.13 6.897-.297z"/>
            <path fill="#FFD02F" d="M30.63 28.224l-.315 12.061c-2.903.29-5.097.435-6.583.435-1.485 0-3.68-.145-6.583-.435l.368-7.943V28.52c2.777.031 4.85.031 6.215 0 1.367-.03 3.666-.13 6.898-.296z"/>
        </g>
        <path stroke="#050038" stroke-linecap="round" stroke-linejoin="round" stroke-width="2" d="M19.244 16.008h10.47M2.49 30.667h10.471M35.299 30.667h10.47M19.244 19.498h10.47M2.49 34.157h10.471M35.299 34.157h10.47M19.244 22.989h10.47"/>
    </g>
</svg>
