<svg xmlns="http://www.w3.org/2000/svg" width="38" height="42" viewBox="0 0 38 42">
  <g fill="none" fill-rule="evenodd">
    <path d="M-6-5h50v50H-6z"/>
    <path stroke="#69F" stroke-width="2" d="M1 5h6v6H1z" stroke-linecap="round" stroke-linejoin="round"/>
    <path stroke="#EC8EAD" stroke-width="2" d="M1 15h6v6H1z" stroke-linecap="round" stroke-linejoin="round"/>
    <path stroke="#7CC576" stroke-width="2" d="M11 5h6v6h-6z" stroke-linecap="round" stroke-linejoin="round"/>
    <path stroke="#69F" stroke-width="2" d="M11 15h6v6h-6z" stroke-linecap="round" stroke-linejoin="round"/>
    <path stroke="#FBCF47" stroke-width="2" d="M21 5h6v6h-6z" stroke-linecap="round" stroke-linejoin="round"/>
    <path stroke="#EC8EAD" stroke-width="2" d="M31 5h6v6h-6z" stroke-linecap="round" stroke-linejoin="round"/>
    <path stroke="#7CC576" stroke-width="2" d="M31 15h6v6h-6z" stroke-linecap="round" stroke-linejoin="round"/>
    <path stroke="#69F" stroke-width="2" d="M31 25h6v6h-6z" stroke-linecap="round" stroke-linejoin="round"/>
    <path stroke="#FBCF47" stroke-width="2" d="M31 35h6v6h-6z" stroke-linecap="round" stroke-linejoin="round"/>
    <path stroke="#7CC576" stroke-width="2" d="M11 25h6v6h-6z" stroke-linecap="round" stroke-linejoin="round"/>
    <path stroke="#FBCF47" stroke-width="2" d="M1 1h6" stroke-linecap="round" stroke-linejoin="round"/>
    <path stroke="#69F" stroke-width="2" d="M11 1h6" stroke-linecap="round" stroke-linejoin="round"/>
    <path stroke="#EC8EAD" stroke-width="2" d="M21 1h6" stroke-linecap="round" stroke-linejoin="round"/>
    <path stroke="#7CC576" stroke-width="2" d="M31 1h6" stroke-linecap="round" stroke-linejoin="round"/>
  </g>
</svg>