<svg xmlns="http://www.w3.org/2000/svg" width="48" height="52" viewBox="0 0 48 52">
    <g fill="none" fill-rule="evenodd">
        <path d="M-1 1h50v50H-1z"/>
        <path stroke="#050038" stroke-linecap="round" stroke-width="2" d="M19.307 20.502c-.854 6.578-9.828 8.916-9.828 17.042 0 8.126 8.136 13.37 14.767 13.37 6.63 0 14.173-5.175 13.864-13.786-.309-8.611-9.512-8.611-9.91-16.626h-8.893zM23.832 9.807V1.625M3.202 25.261s2.69 1.423 3.588 1.819M1.408 37.08H5.893M4.099 47.989c.897-.525 3.588-1.736 3.588-1.819M39.977 45.261l2.69 2.728M41.77 37.989H46.257M39.08 27.989l3.588-1.819"/>
        <path stroke="#050038" stroke-linecap="round" stroke-width="2" d="M16.656 33.443c.584.644.59.803 4.366 4.515.082.08 1.483-3.38 2.734-3.705.872-.227 3.132 3.903 3.379 3.705.246-.199.75-1.36 2.976-3.871"/>
        <path fill="#FFBFBF" d="M30.524 22.02c-.11-2.852-.018-6.646-.944-9.3-1.547-4.431-9.989-4.431-11.63-.445-1.19 2.888-.836 7.764-.816 9.63.002.164 4.465.203 13.39.116z"/>
    </g>
</svg>
