<svg xmlns="http://www.w3.org/2000/svg" width="50" height="50" viewBox="0 0 50 50">
    <g fill="none" fill-rule="evenodd">
        <path d="M0 0h50v50H0z"/>
        <path stroke="#6B7588" stroke-linecap="round" stroke-linejoin="round" stroke-width="2" d="M9.5 29H5V13h24v5"/>
        <path stroke="#7CC576" stroke-linecap="round" stroke-linejoin="round" stroke-width="2" d="M21 10V7h24v16h-4.5"/>
        <path stroke="#69F" stroke-linecap="round" stroke-linejoin="round" stroke-width="2" d="M25 18v3"/>
        <path stroke="#7CC576" stroke-linecap="round" stroke-linejoin="round" stroke-width="2" d="M33 4v3"/>
        <path stroke="#6B7588" stroke-linecap="round" stroke-linejoin="round" stroke-width="2" d="M17 10v3"/>
        <path stroke="#69F" stroke-linecap="round" stroke-linejoin="round" stroke-width="2" d="M16 46v-9h18v9"/>
        <path stroke="#6B7588" stroke-linecap="round" stroke-linejoin="round" stroke-width="2" d="M8 37v-8"/>
        <path stroke="#7CC576" stroke-linecap="round" stroke-linejoin="round" stroke-width="2" d="M42 23v8"/>
        <path stroke="#69F" stroke-linecap="round" stroke-linejoin="round" stroke-width="2" d="M13 21h24v16H13z"/>
        <path stroke="#FBCF47" stroke-linecap="round" stroke-linejoin="round" stroke-width="2" d="M17 26h6v6h-6z"/>
        <path stroke="#EC7394" stroke-linecap="round" stroke-linejoin="round" stroke-width="2" d="M27 26h6v6h-6z"/>
        <path stroke="#69F" stroke-linecap="round" stroke-linejoin="round" stroke-width="2" d="M15 46h2"/>
        <path stroke="#6B7588" stroke-linecap="round" stroke-linejoin="round" stroke-width="2" d="M7 37h2"/>
        <path stroke="#7CC576" stroke-linecap="round" stroke-linejoin="round" stroke-width="2" d="M41 31h2"/>
        <path stroke="#69F" stroke-linecap="round" stroke-linejoin="round" stroke-width="2" d="M33 46h2"/>
    </g>
</svg>
