<svg xmlns="http://www.w3.org/2000/svg" width="48" height="49" viewBox="0 0 48 49">
    <g fill="none" fill-rule="evenodd">
        <path d="M-1-1h50v50H-1z"/>
        <g transform="translate(1 1.157)">
            <circle cx="23" cy="23" r="23" fill="#FFF" stroke="#050038" stroke-width="2"/>
            <g fill="#FFBFBF">
                <path d="M5.475 6.45c2.244 2.578 4.467 5.162 6.925 7.523 1.307 1.256 2.273 2.566 3.096 2.94 1.442.652 2.967-1.722 2.504-2.57-1.96-3.588-6.307-9.71-9.5-11.5C7.38 2.216 4.109 4.88 5.475 6.45zM4.625 39.55c2.244-2.578 4.467-5.162 6.924-7.523 1.308-1.256 2.273-2.566 3.097-2.94 1.441-.652 3.294 1.227 2.83 2.075-1.96 3.589-6.283 10.392-9.476 12.181-1.12.627-4.741-2.222-3.375-3.793zM42.196 6.45c-2.244 2.578-4.466 5.162-6.924 7.523-1.308 1.256-2.273 2.566-3.097 2.94-1.441.652-3.654-1.731-3.175-2.57 2-3.5 6.807-10.21 10-12 1.12-.627 4.563 2.536 3.196 4.107zM42.196 39.55c-2.244-2.578-4.466-5.162-6.924-7.523-1.308-1.256-2.273-2.566-3.097-2.94-1.441-.652-3.138 1.408-2.675 2.256 1.96 3.589 6.283 10.392 9.476 12.18 1.12.628 4.587-2.402 3.22-3.973z"/>
            </g>
            <circle cx="23.46" cy="23.46" r="9.66" fill="#FFF" stroke="#050038" stroke-width="2"/>
        </g>
    </g>
</svg>
