<svg xmlns="http://www.w3.org/2000/svg" width="52" height="52" viewBox="0 0 52 52">
    <g fill="none" fill-rule="evenodd">
        <path d="M1 1h50v50H1z"/>
        <g stroke-width="2">
            <path stroke="#050038" d="M50.223 22.27c-3.967 13.724-31.688 15.657-39.424 6.135-4.984-6.134-3.76-14.428 3.553-18.238 7.313-3.81 15.08-3.016 23.408-3.016.15 0 2.542-1.717 7.178-5.151v6.013c0 .46 7.63 6.143 5.285 14.258z"/>
            <path fill="#FFF" stroke="#050038" d="M1.448 29.398c3.966-13.724 31.687-15.656 39.423-6.134 4.984 6.134 3.76 14.427-3.552 18.238-7.314 3.81-15.08 3.015-23.408 3.015-.15 0-2.543 1.717-7.179 5.152v-6.014c0-.46-7.63-6.143-5.284-14.257z"/>
            <path stroke="#3F53D9" stroke-linecap="round" d="M12.472 28.782c6.665-.284 13.727-.142 20.393-.426M12.207 34.676l13.484-.158"/>
        </g>
    </g>
</svg>
