<svg width="50px" height="36px" viewBox="0 0 50 36" xmlns="http://www.w3.org/2000/svg">
  <g fill="none" fill-rule="evenodd">
    <path d="M0-7.5h50v50H0z"/>
    <path d="M7.83423842 26.0641259c3.35083408 0 6.39103148-3.0401974 6.39103148-6.3910314 0-4.1497131-3.0401974-7.1899105-6.39103148-7.1899105-4.14971302 0-7.18991042 3.0401974-7.18991042 7.1899105 0 3.350834 3.0401974 6.3910314 7.18991042 6.3910314z" fill="#FF6575"/>
    <path d="M29.4039697 6.09215255c-5.3282593 3.12502643-4.5107945 7.20472485-15.9775787 8.78766825-8.39128706 1.2239093-10.65366043 11.4260914-4.79327364 15.1786998 7.11829864 4.2524052 10.99376684-1.1512072 20.77085234-3.1955157 6.7036912-1.8617197 12.177015-.4649328 15.9775787-3.9943947 3.7496179-4.2606184 5.5378188-11.9733384-2.3966368-16.77645765-3.1375128-1.58018632-8.2526826-3.12502642-13.5809419 0z" stroke="#050038" stroke-width="2" stroke-linecap="round" stroke-linejoin="round"/>
    <path d="M20.0185435 1.5v13.9775787h13.9775787V1.5H20.0185435z" stroke="#050038" stroke-width="2"/>
    <path stroke="#FF6575" stroke-width="2" stroke-linecap="round" stroke-linejoin="round" d="M38.191638 18.0753366l7.9887893 15.9775787H30.2028486z"/>
  </g>
</svg>
