<svg xmlns="http://www.w3.org/2000/svg" width="31" height="48" viewBox="0 0 31 48">
  <g fill="none">
    <path fill="#FDD19C" d="M4 35c0 7.64 5.67 13 13.5 13S31 42.64 31 35c0-.55-.45-1-1-1s-1 .45-1 1c0 6.5-4.75 11-11.5 11S6 41.5 6 35c0-.55-.45-1-1-1s-1 .45-1 1z"/>
    <path fill="#FDD19C" d="M6 35v-8c0-1.27.56-2 1.5-2s1.5.73 1.5 2v7c0 .55.45 1 1 1s1-.45 1-1v-7c0-2.28-1.32-4-3.5-4C5.32 23 4 24.72 4 27v8c0 .55.45 1 1 1s1-.45 1-1z"/>
    <path fill="#FDD19C" d="M11 26V11.5c0-.83.67-1.5 1.5-1.5s1.5.67 1.5 1.5V26c0 .55.45 1 1 1s1-.45 1-1V11.5C16 9.58 14.44 8 12.5 8S9 9.57 9 11.5V26c0 .55.45 1 1 1s1-.45 1-1z"/>
    <path fill="#FDD19C" d="M16 25v-5.5c0-.83.67-1.5 1.5-1.5s1.5.67 1.5 1.5V26c0 .55.45 1 1 1s1-.45 1-1v-6.5c0-1.93-1.56-3.5-3.5-3.5S14 17.57 14 19.5V25c0 .55.45 1 1 1s1-.45 1-1z"/>
    <path fill="#FDD19C" d="M21 27v-4.5c0-.83.67-1.5 1.5-1.5s1.5.67 1.5 1.5V29c0 .55.45 1 1 1s1-.45 1-1v-6.5c0-1.93-1.56-3.5-3.5-3.5S19 20.57 19 22.5V27c0 .55.45 1 1 1s1-.45 1-1z"/>
    <path fill="#FDD19C" d="M26 26.5c0-.83.67-1.5 1.5-1.5.82 0 1.5.68 1.5 1.5V35c0 .55.45 1 1 1s1-.45 1-1v-8.5c0-1.93-1.57-3.5-3.5-3.5-1.94 0-3.5 1.56-3.5 3.5 0 .55.45 1 1 1s1-.45 1-1z"/>
    <path fill="#69F" d="M19.43 12.38c1.15-2.78.54-6.02-1.63-8.18-2.93-2.93-7.67-2.93-10.6 0-2.15 2.15-2.77 5.35-1.65 8.12.2.5.8.76 1.3.55.5-.2.76-.8.55-1.3-.82-2.03-.37-4.38 1.2-5.96 2.16-2.1 5.64-2.1 7.8 0 1.58 1.6 2.03 4 1.18 6-.2.56.03 1.1.54 1.36.5.2 1.1-.03 1.3-.54z"/>
    <path fill="#69F" d="M3.66.66c-4.88 4.88-4.88 12.8 0 17.68.4.4 1.02.4 1.42 0 .4-.4.4-1.02 0-1.42-4.1-4.1-4.1-10.74 0-14.84.4-.4.4-1.03 0-1.42-.4-.4-1.03-.4-1.42 0zm19.82 14.82c.4-.7.7-1.47.95-2.24 1.38-4.4.23-9.26-3.1-12.58-.38-.4-1-.4-1.4 0-.4.4-.4 1.02 0 1.42 2.8 2.8 3.75 6.86 2.6 10.56-.2.65-.48 1.28-.8 1.9-.27.47-.1 1.08.4 1.34.48.27 1.08.1 1.35-.4z"/>
  </g>
</svg>