<svg xmlns="http://www.w3.org/2000/svg" width="32" height="45" viewBox="0 0 32 45">
    <g fill="none" fill-rule="evenodd">
        <g transform="translate(1.5 1)">
            <circle cx="12.585" cy="8.39" r="4.195" fill="#FF6575"/>
            <g stroke="#050038" stroke-linecap="round" stroke-linejoin="round" stroke-width="2">
                <path d="M6.924 13.55C1.63 9.03 4.48 1.124 11.676.08 17.727-.796 23.8 5.636 19.56 11.89"/>
                <path fill="#FFF" fill-rule="nonzero" d="M13.382 42.326C7.362 40.603 1.064 31.716.66 31.233c-1.246-1.492-.604-3.017.893-3.017 1.321 0 4.395 1.512 9.222 4.535.042-1.014-.665-14.18 0-19.396.126-.989.304-2.271 1.208-2.73.97-.493 2.393.342 2.786 2.502.711 3.919 1.966 10.511 1.966 10.953.469-1.262.752-2.538 1.622-4.967.871-3.19 3.603-4.08 4.02.197.088.911.268 2.799.54 5.662a25.98 25.98 0 0 1 .696-5.107c.464-1.953 2.883-1.868 3.47 0 .69 2.197 2.63 12.317.947 17.277-1.81 5.334-8.628 6.907-14.648 5.184z"/>
            </g>
        </g>
        <path d="M-9-2.5h50v50H-9z"/>
    </g>
</svg>
